<?xml version="1.0" encoding="utf-8"?>
<!-- Generator: Adobe Illustrator 16.0.0, SVG Export Plug-In . SVG Version: 6.00 Build 0)  -->
<!DOCTYPE svg PUBLIC "-//W3C//DTD SVG 1.1//EN" "http://www.w3.org/Graphics/SVG/1.1/DTD/svg11.dtd">
<svg version="1.1" id="Layer_1" xmlns="http://www.w3.org/2000/svg" xmlns:xlink="http://www.w3.org/1999/xlink" x="0px" y="0px"
	 width="256px" height="136.842px" viewBox="0 0 256 136.842" enable-background="new 0 0 256 136.842" xml:space="preserve">
<path fill="#AD80B5" d="M256,124.843c0,6.626-5.373,11.999-12,11.999H12c-6.627,0-12-5.373-12-11.999V12C0,5.373,5.372,0,12,0h232
	c6.627,0,12,5.373,12,12V124.843z"/>
<g>
	<path fill="#FFFFFF" d="M37.492,104.042l29.852-67.326c0.353-0.847,0.529-1.517,0.529-2.011c0-1.482-1.447-2.223-4.34-2.223h-1.059
		c-2.188,0-3.281-0.953-3.281-2.858c0-1.482,0.635-2.628,1.905-3.44c1.271-0.811,3.88-1.217,7.833-1.217
		c4.304,0,7.903,0.317,10.798,0.953c2.893,0.635,4.869,1.765,5.928,3.387c1.834-1.411,3.97-2.487,6.405-3.229
		c2.435-0.741,5.309-1.111,8.627-1.111c5.433,0,9.35,0.777,11.75,2.329c2.398,1.553,3.599,3.811,3.599,6.775
		c0,2.329-0.706,5.012-2.117,8.045l-11.856,26.253c-2.823,6.21-6.864,11.009-12.121,14.396c-5.258,3.388-12.227,5.081-20.907,5.081
		c-1.905,0-3.847-0.105-5.822-0.317l-7.41,16.514H37.492z M95.714,43.702c0.987-2.329,1.641-4.022,1.958-5.081
		c0.317-1.059,0.476-1.906,0.476-2.541c0-1.128-0.37-2.046-1.111-2.752c-0.741-0.705-1.924-1.059-3.546-1.059
		c-3.882,0-6.634,1.836-8.257,5.504L66.391,80.223c0.564,0.071,1.093,0.124,1.588,0.159c0.493,0.036,0.953,0.053,1.376,0.053
		c3.528,0,6.458-0.882,8.787-2.646c2.329-1.763,4.48-4.869,6.457-9.315L95.714,43.702z"/>
	<path fill="#FFFFFF" d="M156.476,85.833c-0.777,1.766-1.958,3.459-3.546,5.082c-1.588,1.624-3.406,3.175-5.452,4.657
		c-3.882,2.683-8.028,4.816-12.438,6.404c-4.411,1.588-9.087,2.382-14.026,2.382c-1.625,0-3.546-0.053-5.77-0.158
		c-2.223-0.106-4.324-0.477-6.298-1.112c-1.977-0.635-3.652-1.604-5.028-2.911c-1.376-1.305-2.064-3.191-2.064-5.663
		c0-3.388,0.688-6.862,2.064-10.427c1.376-3.563,3.316-6.897,5.822-10.004c2.504-3.104,5.468-5.804,8.892-8.098
		c3.422-2.293,7.146-3.864,11.167-4.711c-3.175-1.059-5.417-2.61-6.722-4.658c-1.307-2.046-1.958-4.304-1.958-6.775
		c0-4.022,0.847-7.569,2.541-10.639c1.693-3.07,4.004-5.664,6.934-7.781c2.928-2.117,6.314-3.721,10.162-4.816
		c3.846-1.093,7.955-1.641,12.332-1.641c2.752,0,5.082,0.106,6.986,0.317c1.906,0.212,3.423,0.583,4.553,1.112
		c1.128,0.529,1.939,1.235,2.435,2.117c0.493,0.883,0.741,1.995,0.741,3.335c0,0.494-0.037,1.023-0.105,1.588
		c-0.072,0.565-0.178,1.129-0.318,1.693l-17.996,6.563c0.353-0.493,0.705-1.075,1.059-1.747c0.353-0.67,0.67-1.34,0.953-2.011
		c0.281-0.67,0.511-1.305,0.688-1.906c0.176-0.599,0.266-1.075,0.266-1.429c0-1.059-1.131-1.588-3.389-1.588
		c-1.129,0-2.347,0.495-3.651,1.482c-1.307,0.989-2.506,2.294-3.599,3.917c-1.096,1.625-2.012,3.44-2.753,5.452
		s-1.111,4.041-1.111,6.087c0,0.847,0.105,1.712,0.317,2.594c0.212,0.883,0.617,1.729,1.217,2.54c0.6,0.813,1.446,1.606,2.541,2.382
		c1.094,0.777,2.488,1.482,4.182,2.117l-2.012,4.446c-2.328,0.777-4.43,1.624-6.299,2.541c-1.87,0.918-3.546,1.905-5.027,2.964
		c-1.482,1.059-2.842,2.206-4.076,3.44c-1.235,1.235-2.418,2.524-3.546,3.863c-1.059,1.271-1.995,2.594-2.805,3.97
		c-0.813,1.377-1.519,2.753-2.117,4.129c-0.601,1.376-1.059,2.683-1.376,3.917c-0.317,1.235-0.476,2.347-0.476,3.334
		c0,1.482,0.493,2.646,1.482,3.493c0.987,0.848,2.575,1.271,4.764,1.271c2.469,0,5.169-0.405,8.099-1.217
		c2.928-0.811,5.75-1.906,8.469-3.282c2.715-1.376,5.15-2.98,7.304-4.816c2.151-1.834,3.722-3.811,4.71-5.928L156.476,85.833z"/>
	<path fill="#FFFFFF" d="M218.086,86.045c-0.918,2.048-2.56,4.146-4.923,6.299c-2.365,2.153-5.065,4.128-8.099,5.928
		c-3.035,1.8-6.211,3.266-9.527,4.394c-3.318,1.13-6.388,1.693-9.209,1.693c-4.658,0-6.986-2.47-6.986-7.41
		c0-0.353,0.016-0.741,0.053-1.164c0.034-0.424,0.088-0.811,0.158-1.165c-3.176,3.176-6.74,5.595-10.691,7.252
		c-3.953,1.659-8.293,2.487-13.021,2.487c-5.435,0-8.15-2.575-8.15-7.728c0-0.564,0.069-1.199,0.212-1.905
		c0.141-0.705,0.423-1.694,0.847-2.964c0.424-1.271,1.075-2.964,1.959-5.081c0.881-2.117,2.063-4.87,3.545-8.258l16.832-37.791
		c2.398-5.434,5.486-9.403,9.263-11.909c3.774-2.504,8.733-3.758,14.873-3.758c3.812,0,6.774,0.741,8.892,2.223
		c2.117,1.482,3.494,3.07,4.129,4.763l2.858-6.351h15.772l-29.64,66.374c-0.071,0.211-0.106,0.423-0.106,0.635
		c0,0.494,0.387,0.741,1.165,0.741c1.271,0,2.733-0.371,4.394-1.111c1.656-0.741,3.297-1.694,4.922-2.858
		c1.623-1.165,3.104-2.435,4.445-3.812c1.34-1.376,2.293-2.663,2.859-3.863L218.086,86.045z M200.406,45.607
		c0.564-1.199,0.988-2.417,1.271-3.652c0.281-1.234,0.423-2.417,0.423-3.546c0-1.834-0.407-3.387-1.218-4.658
		c-0.812-1.271-2.029-1.905-3.651-1.905c-0.706,0-1.342,0.105-1.905,0.317c-0.566,0.212-1.111,0.582-1.641,1.111
		s-1.077,1.271-1.642,2.223c-0.565,0.953-1.2,2.207-1.905,3.758L171.932,79.8c-1.694,3.882-2.895,6.758-3.6,8.627
		c-0.707,1.871-1.059,3.159-1.059,3.864c0,1.693,0.705,2.54,2.117,2.54c1.27,0,2.662-0.458,4.182-1.376
		c1.516-0.916,2.98-2.046,4.393-3.388c1.411-1.34,2.682-2.769,3.811-4.287c1.129-1.517,1.976-2.875,2.541-4.075L200.406,45.607z"/>
</g>
</svg>
